<?xml version="1.0" standalone="no"?>
<!DOCTYPE svg PUBLIC "-//W3C//DTD SVG 20010904//EN"
 "http://www.w3.org/TR/2001/REC-SVG-20010904/DTD/svg10.dtd">
<svg version="1.0" xmlns="http://www.w3.org/2000/svg"
 viewBox="0 0 1042.000000 680.000000"
 preserveAspectRatio="xMidYMid meet">

<g transform="translate(0.000000,680.000000) scale(0.100000,-0.100000)"
fill="#7F00FF" stroke="none">
<path d="M5200 6750 c0 -5 -22 -10 -50 -10 -27 0 -50 -4 -50 -10 0 -5 -13 -10
-30 -10 -16 0 -30 -4 -30 -10 0 -5 -13 -10 -30 -10 -16 0 -30 -4 -30 -10 0 -5
-9 -10 -20 -10 -11 0 -20 -4 -20 -10 0 -5 -9 -10 -20 -10 -11 0 -20 -4 -20
-10 0 -5 -13 -10 -28 -10 -16 0 -34 -8 -42 -20 -8 -11 -21 -20 -30 -20 -9 0
-22 -9 -30 -20 -8 -11 -20 -20 -27 -20 -16 0 -143 -125 -143 -141 0 -6 -13
-24 -30 -39 -16 -15 -30 -34 -30 -42 0 -7 -9 -20 -20 -28 -11 -8 -20 -22 -20
-32 0 -10 -4 -18 -10 -18 -5 0 -10 -9 -10 -20 0 -11 -4 -20 -10 -20 -5 0 -10
-18 -10 -40 0 -22 -4 -40 -10 -40 -5 0 -10 -18 -10 -40 0 -22 -4 -40 -10 -40
-6 0 -10 -43 -10 -110 0 -67 -4 -110 -10 -110 -6 0 -10 -33 -10 -80 0 -47 4
-80 10 -80 6 0 10 -63 10 -170 0 -93 -2 -170 -5 -170 -13 0 -55 50 -55 65 0 8
-4 15 -10 15 -5 0 -10 9 -10 20 0 11 -4 20 -10 20 -5 0 -10 11 -10 25 0 26
-39 75 -60 75 -21 0 -80 -69 -80 -95 0 -14 -4 -25 -10 -25 -6 0 -10 -40 -10
-100 0 -60 4 -100 10 -100 6 0 10 -13 10 -30 0 -16 5 -30 10 -30 6 0 10 -8 10
-18 0 -10 9 -24 20 -32 11 -8 20 -20 20 -28 0 -17 45 -62 62 -62 8 0 20 -9 28
-20 8 -12 26 -20 42 -20 15 0 28 -4 28 -10 0 -5 14 -10 30 -10 27 0 30 -3 30
-30 0 -16 5 -30 10 -30 6 0 10 -13 10 -30 0 -16 5 -30 10 -30 6 0 10 -9 10
-20 0 -11 5 -20 10 -20 6 0 10 -13 10 -30 0 -16 5 -30 10 -30 6 0 10 -8 10
-18 0 -10 9 -24 20 -32 11 -8 20 -21 20 -30 0 -9 9 -22 20 -30 11 -8 20 -20
20 -28 0 -7 23 -35 50 -62 28 -27 50 -56 50 -64 0 -9 7 -16 16 -16 8 0 33 -18
54 -40 21 -22 45 -40 52 -40 7 0 20 -9 28 -20 8 -11 21 -20 28 -20 8 0 27 -13
42 -30 15 -16 35 -30 44 -30 11 0 16 -9 16 -30 0 -16 -4 -30 -10 -30 -5 0 -10
5 -10 10 0 6 -18 10 -40 10 -22 0 -40 5 -40 10 0 6 -9 10 -20 10 -11 0 -20 5
-20 10 0 6 -9 10 -20 10 -11 0 -20 5 -20 10 0 6 -9 10 -20 10 -11 0 -20 5 -20
10 0 6 -8 10 -18 10 -10 0 -24 9 -32 20 -8 11 -22 20 -32 20 -10 0 -18 5 -18
10 0 6 -4 10 -10 10 -6 0 -10 -33 -10 -80 0 -47 4 -80 10 -80 6 0 10 -60 10
-160 0 -100 -4 -160 -10 -160 -6 0 -10 -33 -10 -80 0 -47 -4 -80 -10 -80 -6 0
-10 -27 -10 -60 0 -33 -4 -60 -10 -60 -5 0 -10 -22 -10 -50 0 -27 -4 -50 -10
-50 -5 0 -10 -9 -10 -20 0 -11 -3 -20 -6 -20 -11 0 -34 29 -34 44 0 9 -4 16
-10 16 -5 0 -10 9 -10 20 0 11 -4 20 -10 20 -5 0 -10 18 -10 40 0 22 -4 40
-10 40 -5 0 -10 18 -10 40 0 22 -4 40 -10 40 -5 0 -10 7 -10 16 0 22 -32 53
-38 36 -2 -6 -11 -12 -21 -12 -9 0 -23 -9 -31 -20 -8 -11 -21 -20 -30 -20 -9
0 -22 -9 -30 -20 -8 -11 -22 -20 -32 -20 -10 0 -18 -4 -18 -10 0 -5 -9 -10
-20 -10 -11 0 -20 -4 -20 -10 0 -5 -9 -10 -20 -10 -11 0 -20 -4 -20 -10 0 -5
-8 -10 -18 -10 -10 0 -24 -9 -32 -20 -8 -11 -22 -20 -32 -20 -10 0 -18 -4 -18
-10 0 -5 -9 -10 -20 -10 -11 0 -20 -4 -20 -10 0 -5 -13 -10 -30 -10 -16 0 -30
-4 -30 -10 0 -5 -9 -10 -20 -10 -11 0 -20 -4 -20 -10 0 -5 -9 -10 -20 -10 -11
0 -20 -4 -20 -10 0 -5 -13 -10 -30 -10 -16 0 -30 -4 -30 -10 0 -5 -9 -10 -20
-10 -11 0 -20 -4 -20 -10 0 -5 -9 -10 -20 -10 -11 0 -20 -4 -20 -10 0 -5 -9
-10 -20 -10 -11 0 -20 -4 -20 -10 0 -5 -13 -10 -30 -10 -16 0 -30 -4 -30 -10
0 -5 -9 -10 -20 -10 -11 0 -20 -4 -20 -10 0 -5 -13 -10 -30 -10 -16 0 -30 -4
-30 -10 0 -5 -9 -10 -20 -10 -11 0 -20 -4 -20 -10 0 -5 -13 -10 -30 -10 -16 0
-30 -4 -30 -10 0 -5 -9 -10 -20 -10 -11 0 -20 -4 -20 -10 0 -5 -13 -10 -30
-10 -16 0 -30 -4 -30 -10 0 -5 -9 -10 -20 -10 -11 0 -20 -4 -20 -10 0 -5 -9
-10 -20 -10 -11 0 -20 -4 -20 -10 0 -5 -9 -10 -20 -10 -18 0 -20 -7 -20 -60 0
-33 -4 -60 -10 -60 -6 0 -10 -33 -10 -80 0 -47 -4 -80 -10 -80 -6 0 -10 -30
-10 -70 0 -40 -4 -70 -10 -70 -5 0 -10 -13 -10 -30 0 -16 -4 -30 -10 -30 -5 0
-10 -12 -10 -26 0 -14 -6 -32 -14 -40 -21 -21 -46 -17 -46 6 0 11 -4 20 -10
20 -5 0 -10 18 -10 40 0 22 -4 40 -10 40 -6 0 -10 27 -10 60 0 33 -4 60 -10
60 -5 0 -10 23 -10 50 0 28 -4 50 -10 50 -5 0 -10 9 -10 20 0 13 -7 20 -20 20
-11 0 -20 -4 -20 -10 0 -5 -8 -10 -18 -10 -10 0 -24 -9 -32 -20 -8 -11 -21
-20 -30 -20 -9 0 -22 -9 -30 -20 -8 -11 -21 -20 -30 -20 -9 0 -22 -9 -30 -20
-8 -11 -22 -20 -32 -20 -10 0 -18 -4 -18 -10 0 -5 -8 -10 -18 -10 -10 0 -24
-9 -32 -20 -8 -11 -21 -20 -30 -20 -9 0 -22 -9 -30 -20 -8 -11 -21 -20 -30
-20 -9 0 -22 -9 -30 -20 -8 -11 -21 -20 -30 -20 -9 0 -22 -9 -30 -20 -8 -11
-21 -20 -30 -20 -9 0 -22 -9 -30 -20 -8 -11 -22 -20 -32 -20 -10 0 -18 -4 -18
-10 0 -5 -8 -10 -18 -10 -10 0 -24 -9 -32 -20 -8 -11 -22 -20 -32 -20 -10 0
-18 -4 -18 -10 0 -5 -9 -10 -20 -10 -11 0 -20 -4 -20 -10 0 -5 -9 -10 -20 -10
-11 0 -20 -4 -20 -10 0 -5 -8 -10 -18 -10 -10 0 -24 -9 -32 -20 -8 -11 -22
-20 -32 -20 -10 0 -18 -4 -18 -10 0 -5 -8 -10 -18 -10 -10 0 -24 -9 -32 -20
-8 -11 -22 -20 -32 -20 -10 0 -18 -4 -18 -10 0 -5 -9 -10 -20 -10 -11 0 -20
-4 -20 -10 0 -5 -8 -10 -18 -10 -10 0 -24 -9 -32 -20 -8 -11 -22 -20 -32 -20
-10 0 -18 -4 -18 -10 0 -5 -8 -10 -18 -10 -10 0 -24 -9 -32 -20 -8 -11 -22
-20 -32 -20 -10 0 -18 -4 -18 -10 0 -5 -9 -10 -20 -10 -11 0 -20 -4 -20 -10 0
-5 -9 -10 -20 -10 -11 0 -20 -4 -20 -10 0 -5 -9 -10 -20 -10 -11 0 -20 -4 -20
-10 0 -5 -18 -10 -40 -10 -22 0 -40 -4 -40 -10 0 -5 -9 -10 -20 -10 -11 0 -20
-4 -20 -10 0 -5 -9 -10 -20 -10 -11 0 -20 -4 -20 -10 0 -5 14 -10 30 -10 17 0
30 -4 30 -10 0 -6 37 -10 90 -10 53 0 90 -4 90 -10 0 -6 33 -10 80 -10 47 0
80 -4 80 -10 0 -6 33 -10 80 -10 47 0 80 -4 80 -10 0 -5 23 -10 50 -10 28 0
50 -4 50 -10 0 -5 8 -10 18 -10 10 0 24 -9 32 -20 8 -11 21 -20 30 -20 9 0 22
-9 30 -20 8 -12 26 -20 42 -20 15 0 28 -4 28 -10 0 -5 14 -10 30 -10 17 0 30
-4 30 -10 0 -5 18 -10 40 -10 22 0 40 -4 40 -10 0 -5 23 -10 50 -10 28 0 50
-4 50 -10 0 -5 23 -10 50 -10 28 0 50 -4 50 -10 0 -6 30 -10 70 -10 40 0 70
-4 70 -10 0 -6 40 -10 100 -10 60 0 100 -4 100 -10 0 -6 30 -10 70 -10 40 0
70 4 70 10 0 6 30 10 70 10 40 0 70 4 70 10 0 6 18 10 40 10 22 0 40 5 40 10
0 6 18 10 40 10 22 0 40 5 40 10 0 6 18 10 40 10 22 0 40 5 40 10 0 6 14 10
30 10 17 0 30 5 30 10 0 6 14 10 30 10 17 0 30 5 30 10 0 6 18 10 40 10 22 0
40 5 40 10 0 6 27 10 60 10 33 0 60 4 60 10 0 6 9 10 20 10 11 0 20 -4 20 -10
0 -5 23 -10 50 -10 28 0 50 -4 50 -10 0 -5 14 -10 30 -10 17 0 30 -4 30 -10 0
-5 14 -10 30 -10 17 0 30 -4 30 -10 0 -5 14 -10 30 -10 17 0 30 -4 30 -10 0
-5 14 -10 30 -10 17 0 30 -4 30 -10 0 -5 14 -10 30 -10 17 0 30 -4 30 -10 0
-5 9 -10 20 -10 11 0 20 -4 20 -10 0 -5 13 -10 28 -10 16 0 34 -8 42 -20 8
-11 22 -20 32 -20 10 0 18 -4 18 -10 0 -5 7 -10 15 -10 19 0 185 -164 185
-183 0 -7 9 -19 20 -27 11 -8 20 -21 20 -30 0 -9 9 -22 20 -30 11 -8 20 -21
20 -28 0 -8 14 -27 30 -42 17 -15 30 -35 30 -44 0 -9 5 -16 10 -16 6 0 10 -8
10 -18 0 -10 9 -24 20 -32 11 -8 20 -20 20 -28 0 -7 16 -28 35 -47 29 -30 41
-35 80 -35 43 0 45 1 45 30 0 17 5 30 10 30 7 0 10 140 10 400 0 260 4 400 10
400 6 0 10 77 10 210 0 133 4 210 10 210 6 0 10 53 10 140 0 87 4 140 10 140
6 0 10 23 10 50 0 28 5 50 10 50 6 0 10 9 10 20 0 11 5 20 10 20 6 0 10 7 10
16 0 20 24 44 44 44 9 0 16 2 16 5 0 3 -31 37 -70 75 -38 38 -70 75 -70 82 0
8 -9 20 -20 28 -11 8 -20 22 -20 32 0 10 -4 18 -10 18 -6 0 -10 26 -10 58 0
46 4 60 20 72 11 8 20 20 20 28 0 17 65 82 82 82 8 0 20 9 28 20 8 12 26 20
42 20 15 0 28 5 28 10 0 6 14 10 30 10 17 0 30 -4 30 -10 0 -5 9 -10 20 -10
11 0 20 -4 20 -10 0 -5 7 -10 15 -10 20 0 145 -125 145 -145 0 -8 5 -15 10
-15 6 0 10 -9 10 -19 0 -11 6 -22 13 -25 10 -5 10 -7 0 -12 -7 -3 -13 -13 -13
-23 0 -9 -9 -23 -20 -31 -11 -8 -20 -20 -20 -28 0 -7 -36 -48 -80 -92 -44 -44
-80 -84 -80 -91 0 -6 14 -24 30 -39 17 -15 30 -35 30 -44 0 -9 5 -16 10 -16 6
0 10 -22 10 -50 0 -27 5 -50 10 -50 6 0 10 -47 10 -120 0 -73 4 -120 10 -120
6 0 10 -70 10 -190 0 -120 4 -190 10 -190 6 0 10 -80 10 -220 0 -140 4 -220
10 -220 6 0 10 -67 10 -180 0 -113 4 -180 10 -180 6 0 10 -29 10 -66 0 -67 13
-94 43 -94 9 0 17 -6 19 -12 7 -21 38 17 38 46 0 14 5 26 10 26 6 0 10 14 10
30 0 17 5 30 10 30 6 0 10 9 10 20 0 11 5 20 10 20 6 0 10 9 10 20 0 11 5 20
10 20 6 0 10 9 10 20 0 11 5 20 10 20 6 0 10 7 10 15 0 19 44 65 62 65 8 0 20
9 28 20 8 11 21 20 28 20 7 0 31 18 52 40 21 22 48 40 60 40 25 0 50 22 50 44
0 9 5 16 10 16 6 0 10 43 10 110 0 67 4 110 10 110 6 0 10 9 10 20 0 11 5 20
10 20 6 0 10 14 10 30 0 17 5 30 10 30 6 0 10 14 10 30 0 17 5 30 10 30 6 0
10 14 10 30 0 17 5 30 10 30 6 0 10 14 10 30 0 17 5 30 10 30 6 0 10 9 10 20
0 11 5 20 10 20 6 0 10 9 10 20 0 11 5 20 10 20 6 0 10 14 10 30 0 17 5 30 10
30 6 0 10 9 10 20 0 11 5 20 10 20 6 0 10 7 10 15 0 20 105 125 125 125 8 0
15 5 15 10 0 6 9 10 20 10 11 0 20 5 20 10 0 6 14 10 30 10 17 0 30 5 30 10 0
6 18 10 40 10 22 0 40 5 40 10 0 6 27 10 60 10 33 0 60 4 60 10 0 6 33 10 80
10 47 0 80 -4 80 -10 0 -5 7 -10 15 -10 19 0 65 44 65 62 0 8 9 20 20 28 11 8
20 22 20 32 0 10 5 18 10 18 6 0 10 8 10 18 0 10 9 24 20 32 11 8 20 20 20 28
0 7 54 66 120 132 66 66 120 124 120 130 0 6 27 38 60 70 33 32 60 64 60 70 0
17 -26 40 -44 40 -9 0 -16 5 -16 10 0 6 -9 10 -20 10 -11 0 -20 5 -20 10 0 6
-9 10 -20 10 -11 0 -20 5 -20 10 0 6 -9 10 -20 10 -11 0 -20 5 -20 10 0 6 -9
10 -20 10 -11 0 -20 5 -20 10 0 6 -9 10 -20 10 -11 0 -20 5 -20 10 0 6 -9 10
-20 10 -11 0 -20 5 -20 10 0 6 -9 10 -20 10 -11 0 -20 5 -20 10 0 6 -9 10 -20
10 -11 0 -20 5 -20 10 0 6 -9 10 -20 10 -11 0 -20 5 -20 10 0 6 -8 10 -18 10
-10 0 -24 9 -32 20 -8 11 -21 20 -30 20 -9 0 -22 9 -30 20 -8 11 -22 20 -32
20 -10 0 -18 5 -18 10 0 6 -8 10 -18 10 -10 0 -24 9 -32 20 -8 11 -22 20 -32
20 -10 0 -18 5 -18 10 0 6 -9 10 -20 10 -11 0 -20 5 -20 10 0 6 -9 10 -20 10
-11 0 -20 5 -20 10 0 6 -9 10 -20 10 -11 0 -20 5 -20 10 0 6 -9 10 -20 10 -11
0 -20 5 -20 10 0 6 -9 10 -20 10 -11 0 -20 5 -20 10 0 6 -9 10 -20 10 -11 0
-20 5 -20 10 0 6 -9 10 -20 10 -11 0 -20 5 -20 10 0 6 -9 10 -20 10 -11 0 -20
5 -20 10 0 6 -9 10 -20 10 -11 0 -20 5 -20 10 0 6 -9 10 -20 10 -11 0 -20 5
-20 10 0 6 -8 10 -18 10 -10 0 -24 9 -32 20 -8 11 -22 20 -32 20 -10 0 -18 5
-18 10 0 6 -9 10 -20 10 -11 0 -20 5 -20 10 0 6 -8 10 -18 10 -10 0 -24 9 -32
20 -8 11 -26 20 -40 20 -14 0 -32 9 -40 20 -8 11 -22 20 -32 20 -10 0 -18 5
-18 10 0 6 -9 10 -20 10 -19 0 -20 7 -20 100 0 60 4 100 10 100 6 0 10 9 10
20 0 11 -4 20 -10 20 -5 0 -10 16 -10 36 0 27 -7 43 -30 64 -29 27 -40 60 -20
60 6 0 10 8 10 18 0 10 9 24 20 32 11 8 20 22 20 32 0 11 7 18 20 18 13 0 20
7 20 18 0 10 9 24 20 32 11 8 20 22 20 32 0 10 5 18 10 18 6 0 10 9 10 20 0
11 5 20 10 20 6 0 10 9 10 20 0 11 5 20 10 20 6 0 10 9 10 20 0 11 5 20 10 20
6 0 10 27 10 60 0 33 4 60 10 60 6 0 10 14 10 30 0 29 1 30 50 30 28 0 50 5
50 10 0 6 7 10 15 10 20 0 125 105 125 125 0 8 5 15 10 15 6 0 10 14 10 30 0
17 5 30 10 30 6 0 10 14 10 30 0 17 5 30 10 30 6 0 10 33 10 80 0 47 -4 80
-10 80 -5 0 -10 11 -10 25 0 29 -59 95 -85 95 -8 0 -15 5 -15 10 0 6 -9 10
-20 10 -19 0 -20 7 -20 260 0 167 -4 260 -10 260 -5 0 -10 23 -10 50 0 28 -4
50 -10 50 -5 0 -10 14 -10 30 0 17 -4 30 -10 30 -5 0 -10 9 -10 20 0 11 -4 20
-10 20 -5 0 -10 9 -10 20 0 11 -4 20 -10 20 -5 0 -10 8 -10 18 0 10 -9 24 -20
32 -11 8 -20 20 -20 27 0 19 -166 183 -185 183 -8 0 -15 5 -15 10 0 6 -8 10
-18 10 -10 0 -24 9 -32 20 -8 11 -22 20 -32 20 -10 0 -18 5 -18 10 0 6 -13 10
-30 10 -16 0 -30 5 -30 10 0 6 -9 10 -20 10 -11 0 -20 5 -20 10 0 6 -18 10
-40 10 -22 0 -40 5 -40 10 0 6 -22 10 -50 10 -27 0 -50 5 -50 10 0 6 -60 10
-160 10 -100 0 -160 -4 -160 -10z"/>
<path d="M8100 3930 c0 -5 -7 -10 -15 -10 -23 0 -105 -86 -105 -111 0 -11 18
-38 40 -59 22 -21 40 -46 40 -54 0 -9 5 -16 10 -16 6 0 10 -9 10 -20 0 -11 5
-20 10 -20 6 0 10 -13 10 -30 0 -23 -4 -30 -20 -30 -11 0 -20 5 -20 10 0 6 -8
10 -18 10 -10 0 -24 9 -32 20 -8 11 -21 20 -28 20 -8 0 -27 14 -43 31 -26 27
-30 29 -44 16 -8 -9 -15 -22 -15 -29 0 -8 -9 -20 -20 -28 -11 -8 -20 -21 -20
-28 0 -8 -13 -27 -30 -42 -16 -15 -30 -33 -30 -40 0 -6 -18 -29 -40 -50 -22
-21 -40 -44 -40 -50 0 -6 -18 -29 -40 -50 -22 -21 -40 -44 -40 -50 0 -7 -13
-25 -30 -40 -16 -15 -30 -34 -30 -42 0 -7 -9 -20 -20 -28 -11 -8 -20 -20 -20
-28 0 -7 -22 -35 -50 -62 -27 -27 -50 -54 -50 -60 0 -6 -18 -29 -40 -50 -22
-21 -40 -44 -40 -50 0 -7 -13 -25 -30 -40 -16 -15 -30 -33 -30 -39 0 -7 -45
-56 -100 -111 -55 -55 -100 -104 -100 -110 0 -7 -18 -29 -40 -50 -22 -21 -40
-44 -40 -50 0 -6 -18 -29 -40 -50 -22 -21 -40 -44 -40 -50 0 -6 -18 -29 -40
-50 -22 -21 -40 -43 -40 -50 0 -6 -36 -46 -80 -90 -44 -44 -80 -85 -80 -92 0
-8 -9 -20 -20 -28 -11 -8 -20 -20 -20 -28 0 -15 -65 -82 -80 -82 -6 0 -38 -27
-70 -60 -32 -33 -64 -60 -70 -60 -14 0 -160 -146 -160 -160 0 -6 -22 -33 -50
-60 -27 -27 -50 -54 -50 -60 0 -13 -126 -140 -140 -140 -6 0 -44 -34 -85 -75
-54 -53 -75 -82 -75 -100 0 -14 -4 -25 -10 -25 -5 0 -10 -9 -10 -20 0 -11 -4
-20 -10 -20 -5 0 -10 -9 -10 -20 0 -11 -4 -20 -10 -20 -5 0 -10 -9 -10 -20 0
-11 -4 -20 -10 -20 -5 0 -10 -13 -10 -30 0 -16 -4 -30 -10 -30 -5 0 -10 -9
-10 -20 0 -11 -4 -20 -10 -20 -5 0 -10 -9 -10 -20 0 -11 -4 -20 -10 -20 -5 0
-10 -13 -10 -30 0 -16 -4 -30 -10 -30 -5 0 -10 -9 -10 -20 0 -11 5 -20 10 -20
6 0 10 5 10 10 0 6 8 10 18 10 10 0 24 9 32 20 8 11 22 20 32 20 10 0 18 5 18
10 0 6 8 10 18 10 10 0 24 9 32 20 8 11 22 20 32 20 10 0 18 5 18 10 0 6 9 10
20 10 11 0 20 5 20 10 0 6 9 10 20 10 11 0 20 5 20 10 0 6 9 10 20 10 11 0 20
5 20 10 0 6 14 10 30 10 17 0 30 5 30 10 0 6 14 10 30 10 17 0 30 5 30 10 0 6
7 10 15 10 24 0 65 46 65 72 0 13 9 30 20 38 11 8 20 20 20 28 0 7 45 57 100
112 90 90 118 130 90 130 -5 0 -10 7 -10 16 0 9 -13 29 -30 44 -23 21 -30 37
-30 64 0 20 -4 36 -10 36 -6 0 -10 32 -10 76 0 76 11 104 42 104 8 0 20 9 28
20 8 11 21 20 30 20 9 0 22 9 30 20 8 11 22 20 32 20 10 0 18 5 18 10 0 6 9
10 20 10 11 0 20 5 20 10 0 6 9 10 20 10 11 0 20 5 20 10 0 6 14 10 30 10 17
0 30 5 30 10 0 6 9 10 20 10 11 0 20 5 20 10 0 6 9 10 20 10 11 0 20 5 20 10
0 6 14 10 30 10 17 0 30 5 30 10 0 6 9 10 20 10 11 0 20 5 20 10 0 6 9 10 20
10 11 0 20 5 20 10 0 6 9 10 20 10 11 0 20 5 20 10 0 6 9 10 20 10 11 0 20 5
20 10 0 6 8 10 18 10 10 0 24 9 32 20 8 11 22 20 32 20 10 0 18 5 18 10 0 6 9
10 20 10 11 0 20 5 20 10 0 6 7 10 15 10 19 0 85 64 85 82 0 8 9 20 20 28 11
8 20 21 20 30 0 9 9 22 20 30 11 8 20 21 20 30 0 9 9 22 20 30 11 8 20 22 20
32 0 10 7 18 16 18 19 0 44 24 44 42 0 8 9 20 20 28 11 8 20 21 20 28 0 8 14
27 30 42 17 15 30 35 30 44 0 9 7 16 15 16 18 0 65 44 65 61 0 6 14 24 30 39
17 15 30 33 30 40 0 6 23 33 50 60 28 27 50 54 50 60 0 6 18 29 40 50 22 21
40 44 40 50 0 6 18 29 40 50 22 21 40 44 40 50 0 7 14 25 30 40 17 15 30 33
30 40 0 15 25 40 40 40 15 0 40 25 40 40 0 6 41 51 90 100 50 49 90 95 90 102
0 8 9 20 20 28 11 8 20 22 20 32 0 10 5 18 10 18 6 0 10 9 10 20 0 11 5 20 10
20 6 0 10 14 10 30 0 17 -4 30 -10 30 -5 0 -10 14 -10 30 0 17 -4 30 -10 30
-5 0 -10 7 -10 15 0 20 -65 85 -85 85 -8 0 -15 5 -15 10 0 6 -18 10 -40 10
-22 0 -40 -4 -40 -10z"/>
<path d="M7900 2884 c0 -9 -13 -29 -30 -44 -16 -15 -30 -33 -30 -40 0 -7 -13
-25 -30 -40 -16 -15 -30 -33 -30 -39 0 -15 -106 -121 -120 -121 -19 0 -40 -27
-40 -50 0 -25 22 -50 44 -50 9 0 16 -4 16 -10 0 -5 7 -10 16 -10 8 0 33 -18
54 -40 21 -22 43 -40 50 -40 6 0 51 -40 100 -90 79 -80 93 -90 125 -90 19 0
35 -4 35 -10 0 -6 70 -10 190 -10 120 0 190 -4 190 -10 0 -6 107 -10 300 -10
193 0 300 -4 300 -10 0 -5 18 -10 40 -10 22 0 40 2 40 5 0 13 -50 55 -65 55
-8 0 -15 5 -15 10 0 6 -9 10 -20 10 -11 0 -20 5 -20 10 0 6 -9 10 -20 10 -11
0 -20 5 -20 10 0 6 -9 10 -20 10 -11 0 -20 5 -20 10 0 6 -8 10 -18 10 -10 0
-24 9 -32 20 -8 11 -22 20 -32 20 -10 0 -18 5 -18 10 0 6 -8 10 -18 10 -10 0
-24 9 -32 20 -8 11 -21 20 -30 20 -9 0 -22 9 -30 20 -8 11 -22 20 -32 20 -10
0 -18 5 -18 10 0 6 -8 10 -18 10 -10 0 -24 9 -32 20 -8 11 -21 20 -30 20 -9 0
-22 9 -30 20 -8 11 -21 20 -30 20 -9 0 -22 9 -30 20 -8 11 -22 20 -32 20 -10
0 -18 5 -18 10 0 6 -8 10 -18 10 -10 0 -24 9 -32 20 -8 11 -21 20 -30 20 -9 0
-22 9 -30 20 -8 11 -21 20 -30 20 -9 0 -22 9 -30 20 -8 11 -21 20 -30 20 -9 0
-22 9 -30 20 -8 11 -21 20 -30 20 -9 0 -22 9 -30 20 -8 11 -22 20 -32 20 -10
0 -18 5 -18 10 0 6 -8 10 -18 10 -10 0 -24 9 -32 20 -8 11 -22 20 -32 20 -10
0 -18 5 -18 10 0 6 -9 10 -20 10 -11 0 -20 5 -20 10 0 6 -13 10 -30 10 -21 0
-30 -5 -30 -16z"/>
<path d="M6520 2470 c0 -5 -22 -10 -50 -10 -49 0 -50 -1 -50 -30 0 -16 -4 -30
-10 -30 -5 0 -10 -18 -10 -40 0 -22 -4 -40 -10 -40 -5 0 -10 -13 -10 -30 0
-16 -4 -30 -10 -30 -5 0 -10 -9 -10 -20 0 -11 -4 -20 -10 -20 -5 0 -10 -8 -10
-18 0 -10 -9 -24 -20 -32 -11 -8 -20 -21 -20 -30 0 -9 -9 -22 -20 -30 -11 -8
-20 -22 -20 -32 0 -10 -4 -18 -10 -18 -5 0 -10 -9 -10 -20 0 -11 -4 -20 -10
-20 -6 0 -10 -33 -10 -80 0 -79 0 -80 25 -80 29 0 75 40 75 65 0 8 5 15 10 15
6 0 10 9 10 20 0 11 5 20 10 20 6 0 10 7 10 16 0 9 14 29 30 44 17 15 30 33
30 40 0 6 18 29 40 50 22 21 40 44 40 50 0 7 14 25 30 40 17 15 30 33 30 40 0
6 18 29 40 50 22 21 40 44 40 50 0 6 23 33 50 60 28 27 50 51 50 54 0 3 -49 6
-110 6 -67 0 -110 -4 -110 -10z"/>
<path d="M7473 2305 c-7 -8 -13 -19 -13 -25 0 -16 -47 -60 -65 -60 -8 0 -15
-4 -15 -10 0 -5 -9 -10 -20 -10 -11 0 -20 -4 -20 -10 0 -5 -8 -10 -18 -10 -10
0 -24 -9 -32 -20 -8 -11 -22 -20 -32 -20 -10 0 -18 -4 -18 -10 0 -5 -8 -10
-18 -10 -10 0 -24 -9 -32 -20 -8 -11 -22 -20 -32 -20 -10 0 -18 -4 -18 -10 0
-5 -9 -10 -20 -10 -11 0 -20 -4 -20 -10 0 -5 -9 -10 -20 -10 -11 0 -20 -4 -20
-10 0 -5 -9 -10 -20 -10 -11 0 -20 -4 -20 -10 0 -5 -13 -10 -30 -10 -16 0 -30
-4 -30 -10 0 -5 -9 -10 -20 -10 -11 0 -20 -4 -20 -10 0 -5 -9 -10 -20 -10 -11
0 -20 -4 -20 -10 0 -5 -8 -10 -18 -10 -10 0 -24 -9 -32 -20 -8 -11 -22 -20
-32 -20 -10 0 -18 -4 -18 -10 0 -5 -13 -10 -30 -10 -16 0 -30 -4 -30 -10 0 -5
-9 -10 -20 -10 -11 0 -20 -4 -20 -10 0 -5 -13 -10 -30 -10 -16 0 -30 -4 -30
-10 0 -5 -13 -10 -30 -10 -16 0 -30 -4 -30 -10 0 -5 -7 -10 -16 -10 -20 0 -44
-24 -44 -44 0 -9 -4 -16 -10 -16 -6 0 -10 -30 -10 -70 0 -40 4 -70 10 -70 6 0
10 -7 10 -16 0 -20 24 -44 44 -44 9 0 16 -4 16 -10 0 -5 14 -10 30 -10 17 0
30 -4 30 -10 0 -6 28 -10 65 -10 l66 0 79 -80 79 -80 76 0 c43 0 75 4 75 10 0
6 22 10 49 10 30 0 52 5 55 13 5 10 7 10 12 0 3 -7 19 -13 35 -13 16 0 29 -4
29 -10 0 -5 9 -10 20 -10 11 0 20 -4 20 -10 0 -5 23 -10 50 -10 28 0 50 -4 50
-10 0 -7 150 -10 430 -10 280 0 430 -3 430 -10 0 -6 27 -10 60 -10 33 0 60 -4
60 -10 0 -6 27 -10 60 -10 33 0 60 -4 60 -10 0 -5 23 -10 50 -10 28 0 50 -4
50 -10 0 -5 18 -10 40 -10 22 0 40 -4 40 -10 0 -6 27 -10 60 -10 33 0 60 -4
60 -10 0 -6 37 -10 90 -10 53 0 90 -4 90 -10 0 -6 43 -10 110 -10 67 0 110 -4
110 -10 0 -6 80 -10 220 -10 140 0 220 4 220 10 0 6 20 10 45 10 39 0 51 5 80
35 19 19 35 41 35 50 0 8 5 15 10 15 6 0 10 9 10 20 0 11 5 20 10 20 6 0 10
14 10 30 0 17 5 30 10 30 6 0 10 33 10 80 0 47 -4 80 -10 80 -5 0 -10 18 -10
40 0 22 -4 40 -10 40 -5 0 -10 14 -10 30 0 17 -4 30 -10 30 -5 0 -10 9 -10 20
0 11 -4 20 -10 20 -5 0 -10 9 -10 20 0 11 -4 20 -10 20 -5 0 -10 8 -10 18 0
10 -9 24 -20 32 -11 8 -20 20 -20 27 0 19 -106 123 -125 123 -8 0 -15 5 -15
10 0 6 -9 10 -20 10 -11 0 -20 5 -20 10 0 6 -9 10 -20 10 -11 0 -20 5 -20 10
0 6 -13 10 -30 10 -16 0 -30 5 -30 10 0 6 -18 10 -40 10 -22 0 -40 5 -40 10 0
6 -70 10 -190 10 -120 0 -190 -4 -190 -10 0 -6 -27 -10 -60 -10 -47 0 -60 -3
-60 -15 0 -18 64 -85 80 -85 16 0 60 -47 60 -65 0 -8 -4 -15 -10 -15 -5 0 -10
5 -10 10 0 6 -8 10 -18 10 -10 0 -24 9 -32 20 -8 11 -21 20 -30 20 -9 0 -22 9
-30 20 -8 11 -22 20 -32 20 -10 0 -18 5 -18 10 0 6 -9 10 -20 10 -11 0 -20 5
-20 10 0 7 -140 10 -400 10 -260 0 -400 4 -400 10 0 6 -9 10 -20 10 -11 0 -20
5 -20 10 0 6 -9 10 -20 10 -11 0 -20 5 -20 10 0 6 -7 10 -16 10 -8 0 -33 18
-54 40 -21 22 -44 40 -50 40 -6 0 -29 18 -50 40 -21 22 -44 40 -50 40 -6 0
-29 18 -50 40 -21 22 -45 40 -52 40 -7 0 -20 9 -28 20 -17 23 -40 25 -57 5z"/>
<path d="M2100 1990 c0 -6 -30 -10 -70 -10 -40 0 -70 -4 -70 -10 0 -5 -13 -10
-30 -10 -16 0 -30 -4 -30 -10 0 -5 -13 -10 -30 -10 -16 0 -30 -4 -30 -10 0 -5
-7 -10 -16 -10 -8 0 -33 -18 -54 -40 -21 -22 -43 -40 -49 -40 -17 0 -161 -148
-161 -165 0 -8 -4 -15 -10 -15 -5 0 -10 23 -10 50 0 28 5 50 10 50 6 0 10 13
10 28 0 16 8 34 20 42 11 8 20 22 20 32 0 10 5 18 10 18 6 0 10 18 10 40 l0
40 -80 0 c-47 0 -80 4 -80 10 0 6 -63 10 -170 10 -107 0 -170 -4 -170 -10 0
-5 -13 -10 -30 -10 -16 0 -30 -4 -30 -10 0 -5 -13 -10 -28 -10 -16 0 -34 -8
-42 -20 -8 -11 -20 -20 -28 -20 -16 0 -82 -65 -82 -81 0 -6 -13 -24 -30 -39
-16 -15 -30 -35 -30 -44 0 -9 -4 -16 -10 -16 -5 0 -10 -9 -10 -20 0 -11 -4
-20 -10 -20 -5 0 -10 -13 -10 -30 0 -16 -4 -30 -10 -30 -5 0 -10 -22 -10 -50
0 -27 -4 -50 -10 -50 -6 0 -10 -40 -10 -100 0 -60 4 -100 10 -100 6 0 10 -18
10 -40 0 -22 5 -40 10 -40 6 0 10 -7 10 -15 0 -9 20 -36 45 -60 l44 -45 366 0
c237 0 365 4 365 10 0 6 33 10 80 10 47 0 80 4 80 10 0 6 27 10 60 10 33 0 60
4 60 10 0 6 30 10 70 10 40 0 70 4 70 10 0 6 18 10 40 10 22 0 40 5 40 10 0 6
18 10 40 10 22 0 40 5 40 10 0 6 27 10 60 10 33 0 60 4 60 10 0 6 47 10 120
10 73 0 120 4 120 10 0 6 57 10 150 10 93 0 150 -4 150 -10 0 -6 130 -10 370
-10 240 0 370 4 370 10 0 6 23 10 50 10 28 0 50 5 50 10 0 6 40 10 100 10 60
0 100 -4 100 -10 0 -5 7 -10 16 -10 8 0 33 -18 54 -40 21 -22 46 -40 54 -40 9
0 16 -8 16 -18 0 -10 9 -24 20 -32 11 -8 20 -22 20 -32 0 -10 5 -18 10 -18 6
0 10 -4 10 -10 0 -6 -53 -10 -140 -10 -87 0 -140 4 -140 10 0 7 -230 10 -670
10 -440 0 -670 -3 -670 -10 0 -5 -18 -10 -40 -10 -22 0 -40 -4 -40 -10 0 -5
-13 -10 -30 -10 -16 0 -30 -4 -30 -10 0 -5 -9 -10 -20 -10 -11 0 -20 -4 -20
-10 0 -5 -9 -10 -20 -10 -11 0 -20 -4 -20 -10 0 -5 -13 -10 -30 -10 -16 0 -30
-4 -30 -10 0 -5 -13 -10 -30 -10 -16 0 -30 -4 -30 -10 0 -5 -13 -10 -30 -10
-16 0 -30 -4 -30 -10 0 -5 -13 -10 -30 -10 -16 0 -30 -4 -30 -10 0 -5 -13 -10
-30 -10 -16 0 -30 -4 -30 -10 0 -5 -13 -10 -30 -10 -16 0 -30 -4 -30 -10 0 -5
-18 -10 -40 -10 -22 0 -40 -4 -40 -10 0 -5 -13 -10 -30 -10 -16 0 -30 -4 -30
-10 0 -5 -13 -10 -30 -10 -16 0 -30 -4 -30 -10 0 -5 -13 -10 -30 -10 -16 0
-30 -4 -30 -10 0 -5 -13 -10 -30 -10 -16 0 -30 -4 -30 -10 0 -5 -13 -10 -30
-10 -16 0 -30 -4 -30 -10 0 -5 -18 -10 -40 -10 -22 0 -40 -4 -40 -10 0 -5 -9
-10 -20 -10 -11 0 -20 -4 -20 -10 0 -5 -13 -10 -30 -10 -16 0 -30 -4 -30 -10
0 -5 -13 -10 -30 -10 -16 0 -30 -4 -30 -10 0 -5 -13 -10 -30 -10 -16 0 -30 -4
-30 -10 0 -5 -13 -10 -30 -10 -16 0 -30 -4 -30 -10 0 -5 -13 -10 -30 -10 -16
0 -30 -4 -30 -10 0 -5 -13 -10 -30 -10 -16 0 -30 -4 -30 -10 0 -5 -18 -10 -40
-10 -22 0 -40 -4 -40 -10 0 -5 -13 -10 -30 -10 -16 0 -30 -4 -30 -10 0 -5 -18
-10 -40 -10 -22 0 -40 -4 -40 -10 0 -5 -13 -10 -30 -10 -16 0 -30 -4 -30 -10
0 -5 -18 -10 -40 -10 -22 0 -40 -4 -40 -10 0 -5 -9 -10 -20 -10 -11 0 -20 -4
-20 -10 0 -5 -9 -10 -20 -10 -11 0 -20 -4 -20 -10 0 -5 -7 -10 -15 -10 -9 0
-27 -11 -40 -25 -14 -13 -25 -31 -25 -40 0 -8 -4 -15 -10 -15 -5 0 -10 -22
-10 -50 0 -27 5 -50 10 -50 6 0 10 -11 10 -25 0 -28 99 -135 125 -135 8 0 15
-4 15 -10 0 -7 1507 -10 4500 -10 2993 0 4500 3 4500 10 0 6 53 10 140 10 87
0 140 4 140 10 0 6 14 10 30 10 17 0 30 5 30 10 0 6 9 10 20 10 11 0 20 5 20
10 0 6 7 10 15 10 20 0 85 65 85 85 0 8 5 15 10 15 6 0 10 9 10 20 0 11 5 20
10 20 6 0 10 21 10 46 0 47 -16 74 -44 74 -9 0 -16 5 -16 10 0 6 -13 10 -30
10 -16 0 -30 5 -30 10 0 6 -9 10 -20 10 -11 0 -20 5 -20 10 0 6 -13 10 -30 10
-16 0 -30 5 -30 10 0 6 -18 10 -40 10 -22 0 -40 5 -40 10 0 6 -13 10 -30 10
-16 0 -30 5 -30 10 0 6 -13 10 -30 10 -16 0 -30 5 -30 10 0 6 -13 10 -30 10
-16 0 -30 5 -30 10 0 6 -13 10 -30 10 -16 0 -30 5 -30 10 0 6 -9 10 -20 10
-11 0 -20 5 -20 10 0 6 -13 10 -30 10 -16 0 -30 5 -30 10 0 6 -9 10 -20 10
-11 0 -20 5 -20 10 0 6 -13 10 -30 10 -16 0 -30 5 -30 10 0 6 -9 10 -20 10
-11 0 -20 5 -20 10 0 6 -13 10 -30 10 -16 0 -30 5 -30 10 0 6 -13 10 -30 10
-16 0 -30 5 -30 10 0 6 -18 10 -40 10 -22 0 -40 5 -40 10 0 6 -13 10 -30 10
-16 0 -30 5 -30 10 0 6 -18 10 -40 10 -22 0 -40 5 -40 10 0 6 -13 10 -30 10
-16 0 -30 5 -30 10 0 6 -18 10 -40 10 -22 0 -40 5 -40 10 0 6 -13 10 -30 10
-16 0 -30 5 -30 10 0 6 -13 10 -30 10 -16 0 -30 5 -30 10 0 6 -13 10 -30 10
-16 0 -30 5 -30 10 0 6 -18 10 -40 10 -22 0 -40 5 -40 10 0 6 -13 10 -30 10
-16 0 -30 5 -30 10 0 6 -13 10 -30 10 -16 0 -30 5 -30 10 0 6 -13 10 -30 10
-16 0 -30 5 -30 10 0 6 -18 10 -40 10 -22 0 -40 5 -40 10 0 6 -9 10 -20 10
-11 0 -20 5 -20 10 0 6 -13 10 -30 10 -16 0 -30 5 -30 10 0 6 -18 10 -40 10
-22 0 -40 5 -40 10 0 6 -22 10 -50 10 -27 0 -50 5 -50 10 0 7 -293 10 -860 10
-567 0 -860 -3 -860 -10 0 -5 -18 -10 -40 -10 -22 0 -40 -4 -40 -10 0 -5 -13
-10 -30 -10 -28 0 -30 -2 -30 -40 l0 -40 140 0 c87 0 140 -4 140 -10 0 -6 63
-10 170 -10 107 0 170 4 170 10 0 7 177 10 510 10 333 0 510 -3 510 -10 0 -6
30 -10 70 -10 40 0 70 -4 70 -10 0 -5 9 -10 20 -10 11 0 20 -4 20 -10 0 -5 9
-10 20 -10 11 0 20 -4 20 -10 0 -5 9 -10 20 -10 11 0 20 -4 20 -10 0 -5 14
-10 30 -10 17 0 30 -4 30 -10 0 -5 9 -10 20 -10 11 0 20 -4 20 -10 0 -5 9 -10
20 -10 11 0 20 -4 20 -10 0 -5 14 -10 30 -10 17 0 30 -4 30 -10 0 -5 14 -10
30 -10 17 0 30 -4 30 -10 0 -5 9 -10 20 -10 11 0 20 -4 20 -10 0 -5 14 -10 30
-10 17 0 30 -4 30 -10 0 -5 9 -10 20 -10 11 0 20 -4 20 -10 0 -5 9 -10 20 -10
11 0 20 -4 20 -10 0 -5 14 -10 30 -10 17 0 30 -4 30 -10 0 -5 9 -10 20 -10 11
0 20 -4 20 -10 0 -5 9 -10 20 -10 11 0 20 -4 20 -10 0 -5 14 -10 30 -10 17 0
30 -4 30 -10 0 -5 9 -10 20 -10 11 0 20 -4 20 -10 0 -5 14 -10 30 -10 17 0 30
-4 30 -10 0 -5 9 -10 20 -10 11 0 20 -4 20 -10 0 -5 9 -10 20 -10 13 0 20 -7
20 -20 0 -20 -7 -20 -330 -20 -213 0 -330 -4 -330 -10 0 -6 -87 -10 -240 -10
-153 0 -240 4 -240 10 0 6 -110 10 -310 10 -200 0 -310 -4 -310 -10 0 -6 -103
-10 -290 -10 -187 0 -290 4 -290 10 0 6 -50 10 -130 10 -80 0 -130 -4 -130
-10 0 -7 -753 -10 -2240 -10 -1487 0 -2240 3 -2240 10 0 6 -40 10 -100 10 -55
0 -100 2 -100 5 0 18 73 75 95 75 14 0 25 5 25 10 0 6 9 10 20 10 11 0 20 5
20 10 0 6 9 10 20 10 11 0 20 5 20 10 0 6 14 10 30 10 17 0 30 5 30 10 0 6 18
10 40 10 22 0 40 5 40 10 0 6 14 10 30 10 17 0 30 5 30 10 0 6 14 10 30 10 17
0 30 5 30 10 0 6 9 10 20 10 11 0 20 5 20 10 0 6 9 10 20 10 11 0 20 5 20 10
0 6 14 10 30 10 17 0 30 5 30 10 0 6 14 10 30 10 17 0 30 5 30 10 0 6 9 10 20
10 11 0 20 5 20 10 0 6 14 10 30 10 17 0 30 5 30 10 0 6 14 10 30 10 17 0 30
5 30 10 0 6 9 10 20 10 11 0 20 5 20 10 0 6 9 10 20 10 11 0 20 5 20 10 0 6
14 10 30 10 17 0 30 5 30 10 0 6 9 10 20 10 11 0 20 5 20 10 0 6 18 10 40 10
22 0 40 5 40 10 0 6 14 10 30 10 17 0 30 -4 30 -10 0 -7 167 -10 480 -10 313
0 480 3 480 10 0 6 63 10 170 10 107 0 170 4 170 10 0 6 9 10 20 10 11 0 20
-4 20 -10 0 -5 9 -10 20 -10 11 0 20 -4 20 -10 0 -5 9 -10 20 -10 11 0 20 -4
20 -10 0 -5 14 -10 30 -10 17 0 30 -4 30 -10 0 -6 33 -10 80 -10 67 0 80 3 80
16 0 9 14 29 30 44 16 15 30 35 30 44 0 9 2 16 6 16 3 0 32 -27 64 -60 42 -42
66 -60 84 -60 15 0 26 5 26 10 0 6 7 10 15 10 20 0 65 45 65 65 0 8 5 15 10
15 6 0 10 27 10 60 0 33 -4 60 -10 60 -5 0 -10 8 -10 18 0 10 -9 24 -20 32
-11 8 -20 22 -20 32 0 10 -4 18 -10 18 -5 0 -10 8 -10 18 0 10 -9 24 -20 32
-11 8 -20 21 -20 28 0 8 -14 27 -30 42 -16 15 -30 34 -30 42 0 7 -9 20 -20 28
-11 8 -20 21 -20 30 0 9 -9 22 -20 30 -11 8 -20 21 -20 30 0 9 -9 22 -20 30
-11 8 -20 20 -20 27 0 19 -106 123 -125 123 -8 0 -15 5 -15 10 0 6 -9 10 -20
10 -11 0 -20 5 -20 10 0 6 -13 10 -30 10 -16 0 -30 5 -30 10 0 6 -13 10 -30
10 -16 0 -30 5 -30 10 0 6 -13 10 -30 10 -26 0 -30 -4 -30 -28 0 -16 8 -34 20
-42 11 -8 20 -21 20 -30 0 -9 9 -22 20 -30 11 -8 20 -21 20 -28 0 -8 14 -27
30 -42 17 -15 30 -33 30 -40 0 -7 14 -25 30 -40 17 -15 30 -34 30 -42 0 -7 9
-20 20 -28 11 -8 20 -22 20 -32 0 -10 5 -18 10 -18 6 0 10 -9 10 -20 0 -11 5
-20 10 -20 6 0 10 -13 10 -30 0 -16 5 -30 10 -30 6 0 10 -13 10 -30 0 -16 5
-30 10 -30 6 0 10 -9 10 -20 0 -12 -7 -20 -16 -20 -19 0 -44 24 -44 42 0 8 -9
20 -20 28 -11 8 -20 21 -20 30 0 9 -9 22 -20 30 -11 8 -20 21 -20 30 0 9 -9
22 -20 30 -11 8 -20 21 -20 28 0 8 -14 27 -30 42 -17 15 -30 33 -30 39 0 7
-31 43 -70 81 -38 38 -70 74 -70 80 0 15 -67 80 -82 80 -8 0 -20 9 -28 20 -8
11 -22 20 -32 20 -10 0 -18 5 -18 10 0 6 -9 10 -20 10 -11 0 -20 5 -20 10 0 6
-18 10 -40 10 -22 0 -40 5 -40 10 0 15 -49 12 -66 -4 -26 -26 -15 -55 41 -111
30 -30 59 -55 65 -55 14 0 100 -86 100 -100 0 -6 27 -38 60 -70 33 -32 60 -66
60 -74 0 -8 6 -16 13 -19 7 -2 8 -8 3 -13 -5 -5 -11 -4 -13 4 -3 6 -12 12 -22
12 -9 0 -23 9 -31 20 -8 11 -21 20 -30 20 -9 0 -22 9 -30 20 -8 11 -22 20 -32
20 -10 0 -18 5 -18 10 0 6 -8 10 -18 10 -10 0 -24 9 -32 20 -8 11 -22 20 -32
20 -10 0 -18 5 -18 10 0 6 -8 10 -18 10 -10 0 -24 9 -32 20 -8 11 -22 20 -32
20 -10 0 -18 5 -18 10 0 6 -9 10 -20 10 -11 0 -20 5 -20 10 0 6 -8 10 -18 10
-10 0 -24 9 -32 20 -8 11 -21 20 -30 20 -9 0 -22 9 -30 20 -15 21 -50 28 -50
10 0 -5 -18 -10 -40 -10 -22 0 -40 -4 -40 -10 0 -6 -27 -10 -60 -10 -33 0 -60
-4 -60 -10 0 -6 -67 -10 -180 -10 -113 0 -180 4 -180 10 0 6 -13 10 -30 10
-16 0 -30 5 -30 10 0 6 -22 10 -50 10 -27 0 -50 5 -50 10 0 6 -22 10 -50 10
-27 0 -50 5 -50 10 0 6 -30 10 -70 10 -40 0 -70 4 -70 10 0 6 -27 10 -60 10
-33 0 -60 4 -60 10 0 6 -33 10 -80 10 -47 0 -80 4 -80 10 0 6 -47 10 -120 10
-73 0 -120 4 -120 10 0 15 -157 13 -163 -2 -2 -7 -8 -10 -12 -6 -9 9 121 138
140 138 8 0 15 5 15 10 0 6 14 10 30 10 17 0 30 5 30 10 0 6 14 10 30 10 17 0
30 5 30 10 0 6 14 10 30 10 17 0 30 5 30 10 0 6 -18 10 -40 10 -22 0 -40 -4
-40 -10z m-600 -1600 c0 -5 12 -10 26 -10 37 0 54 -22 54 -70 0 -30 -6 -47
-25 -65 -22 -23 -32 -25 -120 -25 -57 0 -95 4 -95 10 0 6 -7 10 -16 10 -52 0
-59 75 -11 125 31 32 35 34 110 34 45 1 77 -3 77 -9z"/>
<path d="M6553 1305 c-17 -18 -16 -33 1 -51 17 -16 66 -19 66 -4 0 6 -4 10
-10 10 -5 0 -10 7 -10 16 0 13 -23 45 -32 44 -2 -1 -9 -7 -15 -15z"/>
<path d="M4960 1050 c0 -16 -4 -30 -10 -30 -15 0 -12 -29 4 -46 12 -11 66 -14
300 -14 279 0 286 0 286 20 0 11 5 20 10 20 6 0 10 18 10 40 l0 40 -300 0
-300 0 0 -30z"/>
<path d="M3550 820 c-8 -11 -22 -20 -32 -20 -10 0 -18 -4 -18 -10 0 -6 -33
-10 -80 -10 -73 0 -80 2 -80 20 0 11 -4 20 -10 20 -5 0 -10 -13 -10 -30 0 -27
3 -30 30 -30 17 0 30 -4 30 -10 0 -6 28 -10 65 -10 64 0 66 1 110 45 25 24 45
47 45 50 0 14 -37 3 -50 -15z"/>
<path d="M2853 805 c-21 -23 -16 -65 7 -65 11 0 20 -4 20 -10 0 -6 -27 -10
-60 -10 -33 0 -60 -4 -60 -10 0 -5 -22 -10 -50 -10 -27 0 -50 -4 -50 -10 0 -6
-30 -10 -70 -10 -40 0 -70 -4 -70 -10 0 -5 -22 -10 -50 -10 -47 0 -50 -2 -50
-26 0 -48 18 -54 154 -54 77 0 126 4 126 10 0 6 29 10 66 10 67 0 94 13 94 44
0 9 5 16 10 16 6 0 10 7 10 16 0 31 27 44 94 44 37 0 66 4 66 10 0 6 14 10 30
10 17 0 30 5 30 10 0 6 7 10 15 10 15 0 65 42 65 55 0 3 -71 5 -157 5 -124 -1
-161 -4 -170 -15z"/>
<path d="M4360 710 c0 -6 -43 -10 -110 -10 -67 0 -110 -4 -110 -10 0 -6 -27
-10 -60 -10 l-60 0 0 -30 c0 -29 1 -30 50 -30 28 0 50 5 50 10 0 6 33 10 80
10 47 0 80 4 80 10 0 6 16 10 36 10 19 0 42 6 50 14 16 17 19 46 4 46 -5 0
-10 -4 -10 -10z"/>
<path d="M3580 690 c0 -5 -9 -10 -20 -10 -17 0 -20 -7 -20 -50 l0 -50 135 0
136 0 34 35 c19 19 35 41 35 50 0 8 5 15 10 15 6 0 10 5 10 10 0 6 -60 10
-160 10 -100 0 -160 -4 -160 -10z"/>
<path d="M3220 670 c0 -6 -32 -10 -76 -10 -83 0 -104 -11 -104 -54 0 -19 5
-26 20 -26 11 0 20 -4 20 -10 0 -6 49 -10 126 -10 141 0 154 5 154 64 0 35 -1
36 -40 36 -22 0 -40 5 -40 10 0 6 -13 10 -30 10 -16 0 -30 -4 -30 -10z"/>
</g>
</svg>
